<svg width="902" height="238" viewBox="0 0 902 238" fill="none" xmlns="http://www.w3.org/2000/svg">
<path d="M166.453 156.733H124.638L117.311 192.683C115.506 201.53 114.603 208.138 114.603 212.505C114.603 215.977 115.373 219.057 116.913 221.745C118.506 224.321 121.904 226.001 127.107 226.784V233H93.0985V226.784C97.6118 225.105 100.532 222.921 101.86 220.233C104.568 214.857 107.568 203.938 110.86 187.475L148.851 -9.15527e-05H151.638L189.231 189.491C192.258 204.722 194.992 214.633 197.435 219.225C199.93 223.705 203.382 226.224 207.789 226.784V233H165.178V226.784C169.479 226.336 172.373 224.825 173.86 222.249C175.399 219.673 176.169 216.537 176.169 212.841C176.169 207.914 175.107 200.13 172.984 189.491L166.453 156.733ZM164.222 144.302L145.904 52.2444L127.107 144.302H164.222Z" fill="black"/>
<path d="M267.422 233L225.687 41.3251V193.523C225.687 207.522 226.404 216.257 227.837 219.729C229.802 224.433 232.908 226.784 237.156 226.784H240.979V233H203.386V226.784H207.789C212.355 226.784 215.014 223.873 216.926 218.049C218.094 214.465 218.678 206.29 218.678 193.523V44.6849C218.678 34.6056 218.147 27.3261 217.085 22.8464C216.342 19.5986 214.961 16.9108 212.944 14.7829C210.979 12.5431 207.793 11.4231 203.386 11.4231V5.20755H233.97L273.156 183.443L311.705 5.20755H342.289V11.4231H338.546C333.926 11.4231 330.661 14.335 328.749 20.1586C327.581 23.7423 326.997 31.9178 326.997 44.6849V193.523C326.997 207.522 327.74 216.257 329.227 219.729C331.192 224.433 334.298 226.784 338.546 226.784H342.289V233H296.413V226.784H300.236C304.855 226.784 308.094 223.873 309.953 218.049C311.121 214.465 311.705 206.29 311.705 193.523V41.3251L270.05 233H267.422Z" fill="black"/>
<path d="M463.036 232.633L420.838 41.26V193.218C420.838 207.195 421.563 215.916 423.012 219.383C424.999 224.079 428.139 226.427 432.434 226.427H436.3V232.633H398.289V226.427H402.154C406.772 226.427 410.046 223.52 411.979 217.705C413.16 214.127 413.751 205.965 413.751 193.218V44.6145C413.751 34.551 413.214 27.283 412.14 22.8104C411.389 19.5677 409.993 16.8841 407.953 14.7596C405.966 12.5233 402.745 11.4051 398.289 11.4051V5.19934H429.213L468.835 183.154L507.812 5.19934H538.736V11.4051H534.951C530.28 11.4051 526.978 14.3124 525.046 20.1268C523.864 23.7049 523.274 31.8675 523.274 44.6145V193.218C523.274 207.195 524.026 215.916 525.529 219.383C527.515 224.079 530.656 226.427 534.951 226.427H538.736V232.633H492.35V226.427H496.215C500.886 226.427 504.161 223.52 506.04 217.705C507.221 214.127 507.812 205.965 507.812 193.218V41.26L465.694 232.633H463.036Z" fill="black"/>
<path d="M611.582 11.4051V5.19934H650.238V11.4051H646.13C641.835 11.4051 638.534 15.151 636.225 22.6427C635.098 26.109 634.534 34.1597 634.534 46.7949V139.043C634.534 161.853 633.433 179.576 631.232 192.211C629.085 204.735 624.816 215.525 618.428 224.582C612.092 233.527 603.449 238 592.496 238C580.578 238 571.531 233.695 565.357 225.085C559.183 216.475 554.808 204.903 552.231 190.366C550.513 180.415 549.654 161.742 549.654 134.347V45.4531C549.654 31.4761 548.714 22.3072 546.835 17.9464C545.01 13.5856 542.03 11.4051 537.896 11.4051H533.789V5.19934H580.98V11.4051H576.793C572.283 11.4051 569.062 14.3683 567.129 20.2945C565.787 24.3199 565.116 32.7061 565.116 45.4531V144.578C565.116 153.411 565.491 163.531 566.243 174.936C567.048 186.341 568.471 195.23 570.511 201.604C572.551 207.977 575.477 213.233 579.289 217.37C583.155 221.507 587.879 223.576 593.463 223.576C600.603 223.576 606.992 220.333 612.629 213.848C618.267 207.362 622.105 199.088 624.145 189.025C626.239 178.849 627.286 161.686 627.286 137.533V45.4531C627.286 31.2525 626.534 22.3631 625.031 18.785C622.937 13.8651 619.823 11.4051 615.69 11.4051H611.582Z" fill="black"/>
<path d="M728.1 -9.15527e-05V78.6624H725.12C724.154 63.5672 722.409 51.5471 719.886 42.6018C717.416 33.6565 713.873 26.5562 709.256 21.3009C704.638 16.0455 699.86 13.4178 694.921 13.4178C689.337 13.4178 684.72 16.996 681.07 24.1522C677.419 31.1966 675.593 39.2473 675.593 48.3044C675.593 55.237 676.748 61.5546 679.056 67.2572C682.385 75.6434 690.304 86.825 702.813 100.802C713.014 112.207 719.966 120.985 723.671 127.135C727.429 133.173 730.301 140.329 732.288 148.603C734.328 156.878 735.348 165.543 735.348 174.6C735.348 191.82 732.127 206.692 725.684 219.215C719.295 231.626 711.054 237.832 700.961 237.832C697.793 237.832 694.814 237.329 692.022 236.323C690.358 235.764 686.895 233.751 681.633 230.285C676.426 226.707 673.124 224.918 671.728 224.918C670.386 224.918 669.312 225.756 668.507 227.433C667.755 229.111 667.191 232.577 666.815 237.832H663.836V159.841H666.815C668.211 176.166 670.09 188.41 672.453 196.572C674.815 204.623 678.412 211.332 683.244 216.699C688.129 222.066 693.471 224.75 699.27 224.75C705.981 224.75 711.269 221.06 715.134 213.68C719.054 206.3 721.013 197.579 721.013 187.515C721.013 181.924 720.262 176.278 718.758 170.575C717.309 164.872 715.027 159.561 711.913 154.641C709.819 151.287 704.102 144.186 694.76 133.34C685.418 122.382 678.761 113.661 674.788 107.175C670.869 100.69 667.889 93.5339 665.849 85.7068C663.809 77.8797 662.789 69.2699 662.789 59.8773C662.789 43.5522 665.795 29.5193 671.808 17.7787C677.821 5.92618 685.472 -9.15527e-05 694.76 -9.15527e-05C700.558 -9.15527e-05 706.705 2.96304 713.202 8.88928C716.208 11.6847 718.329 13.0824 719.564 13.0824C720.96 13.0824 722.087 12.2437 722.946 10.5665C723.859 8.77744 724.583 5.25525 725.12 -9.15527e-05H728.1Z" fill="black"/>
<path d="M791.789 226.427V232.633H745V226.427H748.865C753.375 226.427 756.65 223.688 758.69 218.209C759.979 214.63 760.623 206.021 760.623 192.379V45.4531C760.623 33.9361 760.274 26.3326 759.576 22.6427C759.039 19.8473 757.939 17.4432 756.274 15.4305C753.912 12.7469 751.443 11.4051 748.865 11.4051H745V5.19934H791.789V11.4051H787.843C783.387 11.4051 780.139 14.1447 778.098 19.6236C776.756 23.2017 776.085 31.8116 776.085 45.4531V192.379C776.085 203.896 776.434 211.5 777.132 215.19C777.669 217.985 778.796 220.389 780.514 222.402C782.823 225.085 785.266 226.427 787.843 226.427H791.789Z" fill="black"/>
<path d="M896.296 -9.15527e-05L898.792 77.3206H896.296C892.967 54.1747 888.216 37.5142 882.042 27.3389C875.868 17.1637 868.459 12.076 859.815 12.076C852.567 12.076 846.017 15.9337 840.165 23.649C834.313 31.2525 829.696 43.4404 826.314 60.2128C822.985 76.9852 821.321 97.8388 821.321 122.774C821.321 143.348 822.905 161.182 826.072 176.278C829.24 191.373 833.991 202.946 840.326 210.996C846.715 219.047 853.99 223.073 862.15 223.073C869.237 223.073 875.492 219.942 880.914 213.68C886.337 207.307 892.296 194.727 898.792 175.942L901.289 179.297C895.813 199.535 889.424 214.351 882.122 223.743C874.821 233.136 866.15 237.832 856.111 237.832C838.018 237.832 824.005 223.855 814.073 195.901C806.664 175.104 802.96 150.616 802.96 122.438C802.96 99.7397 805.403 78.886 810.288 59.8773C815.174 40.8687 821.885 26.1648 830.421 15.766C839.011 5.25527 848.38 -9.15527e-05 858.527 -9.15527e-05C866.419 -9.15527e-05 874.203 4.02528 881.881 12.076C884.136 14.536 885.746 15.766 886.713 15.766C888.162 15.766 889.424 14.7037 890.498 12.5792C891.893 9.5602 892.887 5.36707 893.477 -9.15527e-05H896.296Z" fill="black"/>
<path d="M46.7889 226.294V232.5H0V226.294H3.86554C8.37531 226.294 11.6502 223.555 13.6904 218.076C14.9789 214.498 15.6231 205.888 15.6231 192.246V45.3203C15.6231 33.8033 15.2742 26.1998 14.5762 22.5099C14.0394 19.7145 12.9387 17.3104 11.2744 15.2977C8.91215 12.6141 6.44255 11.2723 3.86554 11.2723H0V5.06653H46.7889V11.2723H42.8428C38.3868 11.2723 35.1386 14.0118 33.0985 19.4908C31.7563 23.0689 31.0852 31.6788 31.0852 45.3203V192.246C31.0852 203.763 31.4341 211.367 32.1321 215.057C32.669 217.852 33.7964 220.256 35.5144 222.269C37.823 224.952 40.2658 226.294 42.8428 226.294H46.7889Z" fill="black"/>
<path d="M41.4061 165.354H5V81.6459H41.4061V165.354Z" fill="black"/>
<path d="M138.019 131H153.5L146.872 94.8135H146.433L138.019 131ZM126.037 81.6459H176.041L196.217 165.354H160.031L155.864 144.78H136.125L130.204 165.354H99.5L126.037 81.6459Z" fill="black"/>
<path d="M232.076 93.873V165.354H202.907V81.6459H256.419L271.771 141.135H272.21L287.562 81.6459H339.978V165.354H307.081V93.873H306.642L285.588 165.354H253.568L232.514 93.873H232.076Z" fill="black"/>
<path d="M429.33 93.873V165.354H400.161V81.6459H453.673L469.025 141.135H469.464L484.816 81.6459H537.232V165.354H504.335V93.873H503.896L482.842 165.354H450.822L429.768 93.873H429.33Z" fill="black"/>
<path d="M638.773 81.6459V141.488C637.895 159.241 626.491 167 592.497 167C547.538 167 546.661 150.188 546.661 139.607V81.6459H583.067V141.958C583.067 148.659 583.067 153.597 592.497 153.597C602.367 153.597 602.367 148.659 602.367 141.958V81.6459H638.773Z" fill="black"/>
<path d="M740.505 111.626H704.099V99.8689C704.099 95.7541 701.687 93.4027 694.449 93.4027C686.554 93.4027 684.799 95.7541 684.799 99.8689C684.799 113.977 740.505 118.092 740.505 143.957C740.505 159.711 724.715 167 694.23 167C670.983 167 648.393 162.768 648.393 148.307V132.788H684.799V147.249C684.799 152.186 687.651 153.597 694.449 153.597C700.371 153.597 704.099 152.186 704.099 147.249C704.099 128.32 648.393 127.968 648.393 100.927C648.393 85.7608 667.035 80 695.107 80C719.67 80 740.505 84.4676 740.505 98.4581V111.626Z" fill="black"/>
<path d="M785.874 165.354H749.468V81.6459H785.874V165.354Z" fill="black"/>
<path d="M850.813 132.788H887V143.839C887 159.476 871.429 167 840.725 167C816.6 167 794.888 161.709 794.888 142.546V104.454C794.888 85.2905 816.6 80 840.725 80C867.262 80 887 84.2324 887 102.338V111.508H850.594V99.9865C850.594 96.577 848.62 93.4027 840.725 93.4027C833.268 93.4027 831.294 96.577 831.294 99.9865V147.014C831.294 150.423 833.268 153.597 840.725 153.597C848.62 153.597 850.594 150.423 850.594 147.014L850.813 132.788Z" fill="black"/>
</svg>